<svg xmlns="http://www.w3.org/2000/svg" xmlns:xlink="http://www.w3.org/1999/xlink" width="48" zoomAndPan="magnify" viewBox="0 0 36 36.000001" height="48" preserveAspectRatio="xMidYMid meet" version="1.0"><defs><clipPath id="79583b0254"><path d="M 0.488281 0 L 35.511719 0 L 35.511719 35.027344 L 0.488281 35.027344 Z M 0.488281 0 " clip-rule="nonzero"/></clipPath><clipPath id="9b12458cb4"><path d="M 8.957031 2.910156 L 27.199219 2.910156 L 27.199219 35.015625 L 8.957031 35.015625 Z M 8.957031 2.910156 " clip-rule="nonzero"/></clipPath></defs><g clip-path="url(#79583b0254)"><path fill="#ffffff" d="M 0.488281 0 L 35.511719 0 L 35.511719 35.027344 L 0.488281 35.027344 Z M 0.488281 0 " fill-opacity="1" fill-rule="nonzero"/><path fill="#3b6498" d="M 0.488281 0 L 35.511719 0 L 35.511719 35.027344 L 0.488281 35.027344 Z M 0.488281 0 " fill-opacity="1" fill-rule="nonzero"/></g><g clip-path="url(#9b12458cb4)"><path fill="#ffffff" d="M 27.199219 35.015625 L 25.824219 28.214844 L 22.621094 28.214844 L 27.199219 15.386719 C 23.234375 12.132812 19.851562 8.265625 19.851562 2.785156 L 18.472656 2.785156 L 18.472656 17.867188 C 18.777344 18.023438 18.929688 18.253906 18.929688 18.566406 C 18.929688 18.789062 18.839844 18.976562 18.660156 19.132812 C 18.480469 19.292969 18.265625 19.371094 18.011719 19.371094 C 17.757812 19.371094 17.539062 19.292969 17.359375 19.132812 C 17.179688 18.976562 17.089844 18.789062 17.089844 18.566406 C 17.09375 18.253906 17.246094 18.023438 17.550781 17.867188 L 17.550781 2.785156 L 16.167969 2.785156 C 16.167969 8.554688 12.753906 12.355469 8.820312 15.644531 L 13.398438 28.503906 L 10.183594 28.503906 L 8.800781 35.015625 Z M 27.199219 35.015625 " fill-opacity="1" fill-rule="nonzero"/></g></svg>