<svg xmlns="http://www.w3.org/2000/svg" viewBox="0 0 100 100">
  <g fill="#2563EB">
    <!-- Speech Bubble Outline -->
    <path d="M85,5H15c-5.5,0-10,4.5-10,10v50c0,5.5,4.5,10,10,10h15l15,15V80h40c5.5,0,10-4.5,10-10V15C95,9.5,90.5,5,85,5z M87,67c0,1.1-0.9,2-2,2H50.5L41,78.5V69c0-1.1-0.9-2-2-2H15c-1.1,0-2-0.9-2-2V15c0-1.1,0.9-2,2-2h70c1.1,0,2,0.9,2,2V67z"/>
    <!-- Quill -->
    <path d="M64.4,24c-3.4-3.4-9-3.4-12.4,0L24,52c-0.8,0.8-1.2,1.8-1.2,2.8c0,2.2,1.8,4,4,4c1,0,2-0.4,2.8-1.2L57.6,29.6c0.8-0.8,2-0.8,2.8,0s0.8,2,0,2.8L38.8,54c-3.4,3.4-3.4,9,0,12.4c1.7,1.7,4,2.6,6.2,2.6s4.5-0.9,6.2-2.6l17.6-17.6c5.1-5.1,5.1-13.3,0-18.4C66.8,24.9,65.8,24.4,64.4,24z"/>
    <!-- Dots -->
    <circle cx="30" cy="30" r="4"/>
    <circle cx="65" cy="50" r="4"/>
  </g>
</svg>
